<svg xmlns="http://www.w3.org/2000/svg" width="24" height="24" viewBox="0 0 24 24">
  <g id="Group_4519" data-name="Group 4519" transform="translate(9972 13053)">
    <rect id="Rectangle_905" data-name="Rectangle 905" width="24" height="24" transform="translate(-9972 -13053)" fill="none"/>
    <g id="Group_4518" data-name="Group 4518" transform="translate(236 -85)">
      <path id="edit_document_FILL0_wght400_GRAD0_opsz40" d="M6.667,23.716V3.333H16.858l6.115,6.115v4H21.266V10.467H15.839V5.04H8.374V22.009h7.134v1.707Zm1.707-1.707v0Zm13.275-5.63.841.841-4.1,4.076v1.223h1.223l4.1-4.076.841.815-4.459,4.459h-2.9v-2.9Zm2.9,2.879-2.9-2.879,2.114-2.115,2.9,2.879Z" transform="translate(-10212.667 -12969.333)" fill="#0c0c0c"/>
      <path id="Path_392" data-name="Path 392" d="M0,0H8.479V2H0Z" transform="translate(-10201.942 -12956.439)" fill="#0c0c0c"/>
      <path id="Path_393" data-name="Path 393" d="M0,0H5.5V2H0Z" transform="translate(-10201.942 -12952.771)" fill="#0c0c0c"/>
    </g>
  </g>
</svg>
