<svg xmlns="http://www.w3.org/2000/svg" width="24" height="24" viewBox="0 0 24 24">
  <g id="Group_4901" data-name="Group 4901" transform="translate(20175 13999)">
    <rect id="Rectangle_964" data-name="Rectangle 964" width="24" height="24" transform="translate(-20175 -13999)" fill="none"/>
    <g id="task-assign" transform="translate(-20175 -13999)">
      <path id="Path_1628" data-name="Path 1628" d="M0,0,13.67,1.4V16.861H1.2Z" transform="translate(5 4)"/>
      <path id="Path_1626" data-name="Path 1626" d="M16.7,3.1A2.144,2.144,0,0,0,14.8,2H9.2A2.144,2.144,0,0,0,7.3,3.1,3.891,3.891,0,0,0,4,7V18a4.012,4.012,0,0,0,4,4h8a4.012,4.012,0,0,0,4-4V7A3.891,3.891,0,0,0,16.7,3.1ZM9,4.1A.349.349,0,0,1,9.2,4h5.7l.1.1h0v.7a.215.215,0,0,1-.2.2H9.2A.215.215,0,0,1,9,4.8ZM18,18a2.006,2.006,0,0,1-2,2H8a2.006,2.006,0,0,1-2-2V7A2.1,2.1,0,0,1,7,5.2H7v.1c0,.1.1.2.1.3a.1.1,0,0,0,.1.1.349.349,0,0,0,.1.2l.1.1c0,.1.1.1.2.2l.1.1.2.2.1.1c.1,0,.1.1.2.1a.1.1,0,0,1,.1.1c.1,0,.2.1.3.1h.1a.9.9,0,0,0,.5.1h6.2a.367.367,0,0,0,.3-.1.1.1,0,0,0,.1-.1c.1,0,.1-.1.2-.1l.1-.1c.1,0,.1-.1.2-.2l.1-.1.2-.2.1-.1c0-.1.1-.1.1-.2a.1.1,0,0,1,.1-.1c0-.1.1-.2.1-.3V5.3h0a1.981,1.981,0,0,1,1,1.8V18Z" stroke="#fff" stroke-width="1"/>
      <path id="Path_1627" data-name="Path 1627" d="M14.4,11.1a1.053,1.053,0,0,0-1.3.4l-1.4,2.8-1-1a.99.99,0,0,0-1.4,1.4l2,2a.908.908,0,0,0,.7.3h.2a1.275,1.275,0,0,0,.7-.5l2-4A1.15,1.15,0,0,0,14.4,11.1Z" fill="#fff" stroke="#000" stroke-width="1"/>
    </g>
  </g>
</svg>
