<svg xmlns="http://www.w3.org/2000/svg" width="24" height="24" viewBox="0 0 24 24">
  <g id="Group_4750" data-name="Group 4750" transform="translate(5524 13622)">
    <g id="Group_4747" data-name="Group 4747" transform="translate(0 -21)">
      <rect id="Rectangle_905" data-name="Rectangle 905" width="24" height="24" transform="translate(-5524 -13601)" fill="none"/>
      <path id="Icon_awesome-user-circle" data-name="Icon awesome-user-circle" d="M8.341.375a8.341,8.341,0,1,0,8.341,8.341A8.339,8.339,0,0,0,8.341.375Zm0,3.229a2.96,2.96,0,1,1-2.96,2.96A2.96,2.96,0,0,1,8.341,3.6Zm0,11.569a6.445,6.445,0,0,1-4.927-2.294,3.75,3.75,0,0,1,3.313-2.011.823.823,0,0,1,.239.037,4.453,4.453,0,0,0,1.376.232,4.436,4.436,0,0,0,1.376-.232.823.823,0,0,1,.239-.037,3.75,3.75,0,0,1,3.313,2.011A6.445,6.445,0,0,1,8.341,15.173Z" transform="translate(-5520 -13597.375)" fill="#0c0c0c"/>
    </g>
  </g>
</svg>
