<svg xmlns="http://www.w3.org/2000/svg" width="24" height="24" viewBox="0 0 24 24">
  <g id="Group_5364" data-name="Group 5364" transform="translate(1448 10153)">
    <rect id="Rectangle_925" data-name="Rectangle 925" width="24" height="24" transform="translate(-1448 -10153)" fill="none"/>
    <path id="Icon_material-delete-forever" data-name="Icon material-delete-forever" d="M8.321,17.637a1.647,1.647,0,0,0,1.642,1.642h6.569a1.647,1.647,0,0,0,1.642-1.642V7.784H8.321Zm2.02-5.846L11.5,10.633l1.749,1.741,1.741-1.741,1.158,1.158-1.741,1.741,1.741,1.741L14.988,16.43l-1.741-1.741L11.507,16.43l-1.158-1.158,1.741-1.741Zm5.78-6.47L15.3,4.5H11.195l-.821.821H7.5V6.963H18.995V5.321Z" transform="translate(-1449.5 -10152.5)" fill="#df1d1d"/>
  </g>
</svg>
