<svg xmlns="http://www.w3.org/2000/svg" width="20" height="26" viewBox="0 0 20 26">
  <path id="Icon_awesome-file-pdf" data-name="Icon awesome-file-pdf" d="M9.474,13.005a4.781,4.781,0,0,1-.1-2.382C9.807,10.623,9.766,12.5,9.474,13.005Zm-.089,2.4a23.151,23.151,0,0,1-1.479,3.184,19.51,19.51,0,0,1,3.276-1.112A6.625,6.625,0,0,1,9.385,15.4Zm-4.9,6.338c0,.041.688-.274,1.818-2.041A7.077,7.077,0,0,0,4.484,21.739ZM12.917,8.125H20V24.781A1.232,1.232,0,0,1,18.75,26H1.25A1.232,1.232,0,0,1,0,24.781V1.219A1.232,1.232,0,0,1,1.25,0H11.667V6.906A1.238,1.238,0,0,0,12.917,8.125ZM12.5,16.849a5.123,5.123,0,0,1-2.224-2.732,7.126,7.126,0,0,0,.323-3.26,1.313,1.313,0,0,0-2.49-.345,8.244,8.244,0,0,0,.422,3.91,47.165,47.165,0,0,1-2.125,4.357c-.005,0-.005.005-.01.005-1.411.706-3.833,2.26-2.839,3.453a1.637,1.637,0,0,0,1.12.508c.932,0,1.859-.914,3.182-3.138a30.269,30.269,0,0,1,4.115-1.178,8.043,8.043,0,0,0,3.333.99,1.311,1.311,0,0,0,1.026-2.2C15.609,16.524,13.505,16.722,12.5,16.849ZM19.635,5.332,14.531.355A1.266,1.266,0,0,0,13.646,0h-.312V6.5H20V6.19A1.2,1.2,0,0,0,19.635,5.332ZM15.776,18.3c.214-.137-.13-.6-2.229-.457,1.932.8,2.229.457,2.229.457Z" fill="#0c0c0c"/>
</svg>
