<svg xmlns="http://www.w3.org/2000/svg" width="134.976" height="68.618" viewBox="0 0 134.976 68.618">
  <g id="Group_1696" data-name="Group 1696" transform="translate(-82 -80)">
    <g id="Group_1695" data-name="Group 1695" transform="translate(82 80)">
      <path id="Path_381" data-name="Path 381" d="M0,0H134.976V53.99H0Z" fill="#f1f1f1"/>
      <g id="Group_1694" data-name="Group 1694" transform="translate(17.817 15.657)">
        <path id="Path_379" data-name="Path 379" d="M19.636-22.546V-28.82H7.844v6.274a4.8,4.8,0,0,0,.544,2.676,2.267,2.267,0,0,0,1.965.757v.626H2.529v-.626a2.176,2.176,0,0,0,1.938-.765,5.011,5.011,0,0,0,.517-2.664V-36.019a4.96,4.96,0,0,0-.526-2.719,2.232,2.232,0,0,0-1.928-.728v-.626h7.824v.626a2.23,2.23,0,0,0-1.965.783,4.847,4.847,0,0,0-.544,2.662v6.152H19.636v-6.152a5.1,5.1,0,0,0-.507-2.717,2.18,2.18,0,0,0-1.91-.728v-.626h7.751v.626a2.2,2.2,0,0,0-1.919.756,4.906,4.906,0,0,0-.535,2.692v13.476a4.855,4.855,0,0,0,.535,2.682,2.208,2.208,0,0,0,1.919.747v.626H17.218v-.626a2.146,2.146,0,0,0,1.928-.747A5.246,5.246,0,0,0,19.636-22.546Z" transform="translate(-2.529 40.628)" fill="#0c0c0c"/>
        <path id="Path_377" data-name="Path 377" d="M14.589-40.863H15.2V-35.8h-.646a4.939,4.939,0,0,0-1.522-3.279,4.693,4.693,0,0,0-3.276-1.179,4.291,4.291,0,0,0-2.823.884,2.9,2.9,0,0,0-1.07,2.358,3.923,3.923,0,0,0,.886,2.487,15.232,15.232,0,0,0,3.838,2.892A17.1,17.1,0,0,1,15.2-28.06a5.57,5.57,0,0,1,1.181,3.5,5.925,5.925,0,0,1-1.806,4.347,5.928,5.928,0,0,1-4.348,1.805,11.79,11.79,0,0,1-3.759-.811,5.126,5.126,0,0,0-1.2-.332q-.535,0-.829.829H3.794v-5.839H4.44a5.1,5.1,0,0,0,1.575,3.868,5.157,5.157,0,0,0,3.638,1.455,4.593,4.593,0,0,0,3.159-1.051A3.556,3.556,0,0,0,14-23.09a3.921,3.921,0,0,0-.976-2.507,17.225,17.225,0,0,0-4.08-3.089A18.212,18.212,0,0,1,5.563-31.15,5.935,5.935,0,0,1,4.31-33.131,6.68,6.68,0,0,1,3.9-35.5a5.308,5.308,0,0,1,1.633-4.036,5.929,5.929,0,0,1,4.254-1.548,9.9,9.9,0,0,1,3.137.571,4.317,4.317,0,0,0,1.107.258.443.443,0,0,0,.351-.111A1.566,1.566,0,0,0,14.589-40.863Z" transform="translate(41.102 41.084)" fill="#0c0c0c"/>
        <path id="Path_378" data-name="Path 378" d="M23.28-40.863v6.447h-.646a8.227,8.227,0,0,0-2.482-4.421A6.891,6.891,0,0,0,15.6-40.255,7.145,7.145,0,0,0,9.753-37.6a10.866,10.866,0,0,0-2.159,7.074,12.435,12.435,0,0,0,2.279,7.8,7.183,7.183,0,0,0,5.97,2.957,7.981,7.981,0,0,0,7.548-4.753l.572.534a8.661,8.661,0,0,1-3.515,4.08,10.289,10.289,0,0,1-5.527,1.5A11.054,11.054,0,0,1,9.486-19.79a9.693,9.693,0,0,1-3.857-3.8,11.211,11.211,0,0,1-1.356-5.572A11.981,11.981,0,0,1,7.447-37.7a10.518,10.518,0,0,1,8.009-3.38,19.145,19.145,0,0,1,4.115.571,10.153,10.153,0,0,0,1.938.332,1.185,1.185,0,0,0,1.163-.682Z" transform="translate(75.38 41.084)" fill="#0c0c0c"/>
      </g>
    </g>
    <path id="Path_380" data-name="Path 380" d="M5.908-5.259V-7.191H2.284v1.932a1.481,1.481,0,0,0,.167.824.7.7,0,0,0,.6.233v.193H.65V-4.2a.668.668,0,0,0,.6-.236,1.545,1.545,0,0,0,.159-.82V-9.408a1.53,1.53,0,0,0-.162-.837.685.685,0,0,0-.593-.224v-.193h2.4v.193a.685.685,0,0,0-.6.241,1.5,1.5,0,0,0-.167.819v1.894H5.908V-9.409a1.574,1.574,0,0,0-.156-.836.669.669,0,0,0-.587-.224v-.193H7.546v.193a.674.674,0,0,0-.59.233,1.513,1.513,0,0,0-.164.829v4.149a1.5,1.5,0,0,0,.164.826.678.678,0,0,0,.59.23v.193H5.165V-4.2a.659.659,0,0,0,.593-.23A1.618,1.618,0,0,0,5.908-5.259Zm7.507-2.975h.193v3.453a.579.579,0,0,0,.145.46.939.939,0,0,0,.564.119v.193l-1.5.079v-.754H12.8a1.791,1.791,0,0,1-1.44.805,1.278,1.278,0,0,1-.967-.395,1.378,1.378,0,0,1-.377-.991V-7.372A.5.5,0,0,0,9.853-7.8a1.04,1.04,0,0,0-.573-.114V-8.11L10.6-8.235h.2V-5.3a.914.914,0,0,0,.252.681.922.922,0,0,0,.678.25,1.384,1.384,0,0,0,1.089-.675V-7.264q0-.426-.13-.534a1.3,1.3,0,0,0-.669-.119V-8.11ZM19.873-11.3h.193v6.5a.61.61,0,0,0,.147.471.83.83,0,0,0,.539.131v.193H18.359a2.447,2.447,0,0,1-1.75-.607,2.015,2.015,0,0,1-.644-1.531,2.1,2.1,0,0,1,.564-1.477,1.791,1.791,0,0,1,1.364-.61,2.523,2.523,0,0,1,1.384.5v-2.524a1.022,1.022,0,0,0-.108-.561.517.517,0,0,0-.437-.147H18.5v-.193Zm-.6,6.482V-7.3a1.82,1.82,0,0,0-.559-.508,1.271,1.271,0,0,0-.638-.184,1.081,1.081,0,0,0-.907.462,1.96,1.96,0,0,0-.346,1.205A2.375,2.375,0,0,0,17.3-4.781a1.609,1.609,0,0,0,1.324.584.7.7,0,0,0,.5-.147A.638.638,0,0,0,19.278-4.821Zm5.868-3.414V-6.97h-.233a1.233,1.233,0,0,0-.34-.757.939.939,0,0,0-.686-.281.755.755,0,0,0-.493.153.5.5,0,0,0-.187.408.633.633,0,0,0,.173.44,2.555,2.555,0,0,0,.751.457,2.687,2.687,0,0,1,.99.652,1.188,1.188,0,0,1,.241.749,1.208,1.208,0,0,1-.386.893,1.262,1.262,0,0,1-.913.377,1.906,1.906,0,0,1-.72-.2,1.073,1.073,0,0,0-.323-.108.238.238,0,0,0-.181.079.328.328,0,0,0-.085.2h-.2v-1.4h.2a1.515,1.515,0,0,0,.476.877,1.241,1.241,0,0,0,.845.325.7.7,0,0,0,.513-.2.682.682,0,0,0,.207-.506.729.729,0,0,0-.191-.5,2.6,2.6,0,0,0-.825-.492,2.674,2.674,0,0,1-.941-.585,1,1,0,0,1-.227-.658,1.1,1.1,0,0,1,.371-.831,1.244,1.244,0,0,1,.882-.349,1.373,1.373,0,0,1,.516.113.921.921,0,0,0,.323.079.261.261,0,0,0,.244-.193Zm6.662,2.183A2.067,2.067,0,0,1,31.165-4.5a2.224,2.224,0,0,1-1.608.621A2.224,2.224,0,0,1,27.95-4.5a2.067,2.067,0,0,1-.644-1.551,2.085,2.085,0,0,1,.641-1.562,2.221,2.221,0,0,1,1.611-.621,2.221,2.221,0,0,1,1.611.621A2.085,2.085,0,0,1,31.809-6.051Zm-.856,0a2.444,2.444,0,0,0-.374-1.42,1.179,1.179,0,0,0-1.021-.54,1.186,1.186,0,0,0-1.021.528,2.433,2.433,0,0,0-.374,1.431,2.414,2.414,0,0,0,.371,1.414,1.184,1.184,0,0,0,1.024.528,1.18,1.18,0,0,0,1.024-.534A2.419,2.419,0,0,0,30.952-6.048Zm4.02-2.186v.822a2.018,2.018,0,0,1,1.486-.822,1.331,1.331,0,0,1,.992.406,1.466,1.466,0,0,1,.4,1.07V-4.9a.8.8,0,0,0,.142.562.823.823,0,0,0,.556.136v.193H36.35V-4.2a1.045,1.045,0,0,0,.559-.105.466.466,0,0,0,.15-.406V-6.866a.924.924,0,0,0-.258-.687.9.9,0,0,0-.661-.256A1.578,1.578,0,0,0,34.972-7v2.012a1.041,1.041,0,0,0,.132.651.785.785,0,0,0,.554.139v.193H33.492V-4.2q.471,0,.578-.151a1.242,1.242,0,0,0,.108-.64V-7.314a.659.659,0,0,0-.13-.486.9.9,0,0,0-.556-.117V-8.11l1.282-.125Zm12.61-2.524h.187V-9.2h-.2a1.522,1.522,0,0,0-.468-1.009,1.441,1.441,0,0,0-1.007-.363,1.317,1.317,0,0,0-.868.272.9.9,0,0,0-.329.726,1.209,1.209,0,0,0,.272.766,4.682,4.682,0,0,0,1.18.89,5.257,5.257,0,0,1,1.418,1.1,1.717,1.717,0,0,1,.363,1.078A1.826,1.826,0,0,1,47.578-4.4a1.82,1.82,0,0,1-1.336.556,3.618,3.618,0,0,1-1.155-.25,1.573,1.573,0,0,0-.368-.1q-.164,0-.255.255h-.2v-1.8h.2a1.572,1.572,0,0,0,.484,1.191,1.583,1.583,0,0,0,1.118.448,1.41,1.41,0,0,0,.971-.324,1.1,1.1,0,0,0,.365-.863,1.209,1.209,0,0,0-.3-.772,5.3,5.3,0,0,0-1.254-.951,5.6,5.6,0,0,1-1.038-.758,1.828,1.828,0,0,1-.385-.61,2.06,2.06,0,0,1-.125-.729,1.636,1.636,0,0,1,.5-1.243,1.82,1.82,0,0,1,1.307-.477,3.036,3.036,0,0,1,.964.176,1.325,1.325,0,0,0,.34.079.136.136,0,0,0,.108-.034A.482.482,0,0,0,47.582-10.758Zm3.611,1.242h.2v1.384h1.429v.3H51.392v2.648a.949.949,0,0,0,.193.638.686.686,0,0,0,.55.224,1.007,1.007,0,0,0,.766-.4l.13.153a1.559,1.559,0,0,1-1.242.686,1.148,1.148,0,0,1-.856-.335,1.178,1.178,0,0,1-.329-.862V-7.832h-.777v-.2A3.088,3.088,0,0,0,51.194-9.516Zm4.717,1.282v.89a8.014,8.014,0,0,1,.882-.692,1.055,1.055,0,0,1,.525-.2,1.127,1.127,0,0,1,.754.323l-.312.732a2.363,2.363,0,0,0-.975-.363,1.441,1.441,0,0,0-.873.5v2.262a.586.586,0,0,0,.142.46A.886.886,0,0,0,56.6-4.2v.193H54.425V-4.2a.818.818,0,0,0,.564-.137,1.035,1.035,0,0,0,.133-.654V-7.24a.744.744,0,0,0-.145-.552,1.244,1.244,0,0,0-.706-.125V-8.11l1.44-.125Zm7.774,3.17v.3a2.468,2.468,0,0,1-.763.681,1.982,1.982,0,0,1-.933.2,2.2,2.2,0,0,1-1.591-.6,2.039,2.039,0,0,1-.627-1.534,2.223,2.223,0,0,1,.6-1.577,1.928,1.928,0,0,1,1.466-.641,1.8,1.8,0,0,1,1.248.482A1.5,1.5,0,0,1,63.617-6.6v.085H60.594v.057A3.089,3.089,0,0,0,60.8-5.277a1.764,1.764,0,0,0,.6.785,1.4,1.4,0,0,0,.828.284,1.343,1.343,0,0,0,.689-.167A3.78,3.78,0,0,0,63.685-5.064Zm-3.091-1.65h2.24v-.079a1.2,1.2,0,0,0-.315-.873,1.051,1.051,0,0,0-.785-.323,1.023,1.023,0,0,0-.8.34A1.49,1.49,0,0,0,60.594-6.715Zm8.965,1.65v.3a2.468,2.468,0,0,1-.763.681,1.982,1.982,0,0,1-.933.2,2.2,2.2,0,0,1-1.591-.6,2.039,2.039,0,0,1-.627-1.534,2.224,2.224,0,0,1,.6-1.577,1.928,1.928,0,0,1,1.466-.641,1.8,1.8,0,0,1,1.248.482A1.5,1.5,0,0,1,69.491-6.6v.085H66.468v.057a3.089,3.089,0,0,0,.207,1.182,1.764,1.764,0,0,0,.6.785,1.4,1.4,0,0,0,.828.284,1.343,1.343,0,0,0,.689-.167A3.78,3.78,0,0,0,69.559-5.064Zm-3.091-1.65h2.24v-.079a1.2,1.2,0,0,0-.315-.873,1.051,1.051,0,0,0-.785-.323,1.023,1.023,0,0,0-.8.34A1.49,1.49,0,0,0,66.468-6.715Zm6.186-2.8h.2v1.384h1.429v.3H72.853v2.648a.949.949,0,0,0,.193.638.686.686,0,0,0,.55.224,1.007,1.007,0,0,0,.766-.4l.13.153a1.559,1.559,0,0,1-1.242.686,1.148,1.148,0,0,1-.856-.335,1.178,1.178,0,0,1-.329-.862V-7.832h-.777v-.2A3.088,3.088,0,0,0,72.654-9.516Zm13.325-1.242v1.985h-.2a2.534,2.534,0,0,0-.763-1.361,2.115,2.115,0,0,0-1.4-.437,2.194,2.194,0,0,0-1.8.817,3.35,3.35,0,0,0-.664,2.178,3.833,3.833,0,0,0,.7,2.4,2.206,2.206,0,0,0,1.835.91,2.452,2.452,0,0,0,2.319-1.463l.176.164a2.665,2.665,0,0,1-1.08,1.256,3.158,3.158,0,0,1-1.7.462,3.392,3.392,0,0,1-1.67-.425,2.981,2.981,0,0,1-1.185-1.171,3.457,3.457,0,0,1-.417-1.716,3.692,3.692,0,0,1,.975-2.629,3.229,3.229,0,0,1,2.461-1.041,5.874,5.874,0,0,1,1.265.176,3.115,3.115,0,0,0,.6.1.364.364,0,0,0,.357-.21Zm6.668,4.707A2.067,2.067,0,0,1,92-4.5a2.224,2.224,0,0,1-1.608.621A2.224,2.224,0,0,1,88.788-4.5a2.067,2.067,0,0,1-.644-1.551,2.084,2.084,0,0,1,.641-1.562A2.221,2.221,0,0,1,90.4-8.235a2.221,2.221,0,0,1,1.611.621A2.085,2.085,0,0,1,92.647-6.051Zm-.856,0a2.444,2.444,0,0,0-.374-1.42,1.179,1.179,0,0,0-1.021-.54,1.186,1.186,0,0,0-1.021.528A2.433,2.433,0,0,0,89-6.048a2.414,2.414,0,0,0,.371,1.414,1.184,1.184,0,0,0,1.024.528A1.18,1.18,0,0,0,91.42-4.64,2.419,2.419,0,0,0,91.791-6.048Zm4.02-2.186v.822A2.018,2.018,0,0,1,97.3-8.235a1.331,1.331,0,0,1,.992.406,1.466,1.466,0,0,1,.4,1.07V-4.9a.8.8,0,0,0,.142.562.823.823,0,0,0,.556.136v.193H97.189V-4.2a1.045,1.045,0,0,0,.559-.105.466.466,0,0,0,.15-.406V-6.866a.924.924,0,0,0-.258-.687.9.9,0,0,0-.661-.256A1.578,1.578,0,0,0,95.811-7v2.012a1.041,1.041,0,0,0,.132.651A.785.785,0,0,0,96.5-4.2v.193H94.331V-4.2q.471,0,.578-.151a1.242,1.242,0,0,0,.108-.64V-7.314a.659.659,0,0,0-.13-.486.9.9,0,0,0-.556-.117V-8.11l1.282-.125Zm7.933,0V-6.97h-.233a1.233,1.233,0,0,0-.34-.757.939.939,0,0,0-.686-.281.755.755,0,0,0-.493.153.5.5,0,0,0-.187.408.633.633,0,0,0,.173.44,2.556,2.556,0,0,0,.751.457,2.687,2.687,0,0,1,.99.652,1.188,1.188,0,0,1,.241.749,1.208,1.208,0,0,1-.386.893,1.262,1.262,0,0,1-.913.377,1.905,1.905,0,0,1-.72-.2,1.073,1.073,0,0,0-.323-.108.238.238,0,0,0-.181.079.328.328,0,0,0-.085.2h-.2v-1.4h.2a1.515,1.515,0,0,0,.476.877,1.241,1.241,0,0,0,.845.325.7.7,0,0,0,.513-.2.682.682,0,0,0,.207-.506.729.729,0,0,0-.191-.5,2.6,2.6,0,0,0-.825-.492,2.674,2.674,0,0,1-.941-.585,1,1,0,0,1-.227-.658,1.1,1.1,0,0,1,.371-.831,1.244,1.244,0,0,1,.882-.349,1.373,1.373,0,0,1,.516.113.921.921,0,0,0,.323.079.261.261,0,0,0,.244-.193Zm6.027,0h.193v3.453a.579.579,0,0,0,.145.46.939.939,0,0,0,.564.119v.193l-1.5.079v-.754h-.023a1.791,1.791,0,0,1-1.44.805,1.278,1.278,0,0,1-.967-.395,1.378,1.378,0,0,1-.377-.991V-7.372a.5.5,0,0,0-.159-.432,1.04,1.04,0,0,0-.573-.114V-8.11l1.321-.125h.2V-5.3a.914.914,0,0,0,.252.681.922.922,0,0,0,.678.25,1.384,1.384,0,0,0,1.089-.675V-7.264q0-.426-.13-.534a1.3,1.3,0,0,0-.669-.119V-8.11Zm4.66,4.032h.109v.193h-2.3V-4.2h.21a.49.49,0,0,0,.431-.165A1.162,1.162,0,0,0,113-4.98v-5.426a.608.608,0,0,0-.125-.44.608.608,0,0,0-.431-.122h-.267v-.193l1.418-.142h.193v6.521a.6.6,0,0,0,.137.457A.784.784,0,0,0,114.431-4.2Zm3.051-5.314h.2v1.384h1.429v.3H117.68v2.648a.949.949,0,0,0,.193.638.686.686,0,0,0,.55.224,1.007,1.007,0,0,0,.766-.4l.13.153a1.559,1.559,0,0,1-1.242.686,1.148,1.148,0,0,1-.856-.335,1.178,1.178,0,0,1-.329-.862V-7.832h-.777v-.2A3.088,3.088,0,0,0,117.481-9.516Zm4.53,1.282h.2V-4.77a.553.553,0,0,0,.147.454.925.925,0,0,0,.539.114v.193h-2.251V-4.2a1.17,1.17,0,0,0,.635-.111.567.567,0,0,0,.142-.458V-7.3a.681.681,0,0,0-.13-.495,1.094,1.094,0,0,0-.647-.119V-8.11Zm-.181-2.127a.482.482,0,0,1,.354.145.482.482,0,0,1,.145.354.5.5,0,0,1-.147.36.476.476,0,0,1-.352.15.5.5,0,0,1-.363-.15.487.487,0,0,1-.153-.36.473.473,0,0,1,.15-.354A.508.508,0,0,1,121.83-10.361ZM125.9-8.235v.822a2.018,2.018,0,0,1,1.486-.822,1.331,1.331,0,0,1,.992.406,1.466,1.466,0,0,1,.4,1.07V-4.9a.8.8,0,0,0,.142.562.823.823,0,0,0,.556.136v.193h-2.195V-4.2a1.045,1.045,0,0,0,.559-.105.466.466,0,0,0,.15-.406V-6.866a.924.924,0,0,0-.258-.687.9.9,0,0,0-.661-.256A1.578,1.578,0,0,0,125.9-7v2.012a1.041,1.041,0,0,0,.132.651.785.785,0,0,0,.554.139v.193h-2.166V-4.2q.471,0,.578-.151a1.242,1.242,0,0,0,.108-.64V-7.314a.659.659,0,0,0-.13-.486.9.9,0,0,0-.556-.117V-8.11l1.282-.125Zm8.267.045h1.321v.465h-1.089a1.846,1.846,0,0,1,.465,1.2,1.572,1.572,0,0,1-.451,1.106,1.549,1.549,0,0,1-1.08.516,1.922,1.922,0,0,0-.893.289q-.445.266-.445.476a.363.363,0,0,0,.236.34,5.427,5.427,0,0,0,1.1.265,8.818,8.818,0,0,1,1.341.317,1.343,1.343,0,0,1,.589.406.93.93,0,0,1,.213.6,1.457,1.457,0,0,1-.734,1.227,3.115,3.115,0,0,1-1.795.5,2.724,2.724,0,0,1-1.46-.349,1.042,1.042,0,0,1-.559-.91.933.933,0,0,1,.32-.695,3.406,3.406,0,0,1,1.012-.593v-.023a1.541,1.541,0,0,1-.658-.3.589.589,0,0,1-.238-.457q0-.681,1.27-1.129v-.023a1.8,1.8,0,0,1-.956-.57,1.487,1.487,0,0,1-.337-.984,1.653,1.653,0,0,1,.5-1.231,1.711,1.711,0,0,1,1.25-.488q.147,0,.544.023T134.162-8.189ZM132.081-6.6a1.882,1.882,0,0,0,.278,1.078.853.853,0,0,0,.737.408.86.86,0,0,0,.746-.4,1.889,1.889,0,0,0,.275-1.086,1.7,1.7,0,0,0-.281-1.015.86.86,0,0,0-.729-.391.879.879,0,0,0-.743.388A1.686,1.686,0,0,0,132.081-6.6Zm2.966,4.752q0-.4-.5-.627a9.449,9.449,0,0,0-1.911-.468q-1.2.323-1.2.975,0,.442.59.74a3.256,3.256,0,0,0,1.475.3,2.172,2.172,0,0,0,1.117-.255A.757.757,0,0,0,135.047-1.849Z" transform="translate(81.492 149.106)" fill="#0c0c0c"/>
  </g>
</svg>
