<svg xmlns="http://www.w3.org/2000/svg" width="24" height="24" viewBox="0 0 24 24">
  <g id="Group_4749" data-name="Group 4749" transform="translate(5525 13607)">
    <g id="Group_4746" data-name="Group 4746">
      <rect id="Rectangle_905" data-name="Rectangle 905" width="24" height="24" transform="translate(-5525 -13607)" fill="none"/>
      <path id="Icon_awesome-briefcase" data-name="Icon awesome-briefcase" d="M11.111,12.056a.555.555,0,0,1-.556.556H7.222a.555.555,0,0,1-.556-.556V10.389H0v5a1.709,1.709,0,0,0,1.667,1.667H16.111a1.709,1.709,0,0,0,1.667-1.667v-5H11.111Zm5-7.222H13.333V3.167A1.709,1.709,0,0,0,11.667,1.5H6.111A1.709,1.709,0,0,0,4.444,3.167V4.833H1.667A1.709,1.709,0,0,0,0,6.5V9.278H17.778V6.5A1.709,1.709,0,0,0,16.111,4.833Zm-5,0H6.667V3.722h4.444Z" transform="translate(-5522 -13604.5)" fill="#0c0c0c"/>
    </g>
  </g>
</svg>
