<svg xmlns="http://www.w3.org/2000/svg" width="24" height="24" viewBox="0 0 24 24">
  <g id="Group_4748" data-name="Group 4748" transform="translate(5525 13607)">
    <rect id="Rectangle_905" data-name="Rectangle 905" width="24" height="24" transform="translate(-5525 -13607)" fill="none"/>
    <path id="Icon_awesome-clipboard-list" data-name="Icon awesome-clipboard-list" d="M13.273,2.528h-3.16a2.528,2.528,0,0,0-5.056,0H1.9A1.9,1.9,0,0,0,0,4.424v13.9a1.9,1.9,0,0,0,1.9,1.9H13.273a1.9,1.9,0,0,0,1.9-1.9V4.424A1.9,1.9,0,0,0,13.273,2.528ZM3.792,16.749A.948.948,0,1,1,4.74,15.8.946.946,0,0,1,3.792,16.749Zm0-3.792a.948.948,0,1,1,.948-.948A.946.946,0,0,1,3.792,12.957Zm0-3.792a.948.948,0,1,1,.948-.948A.946.946,0,0,1,3.792,9.164ZM7.584,1.58a.948.948,0,1,1-.948.948A.946.946,0,0,1,7.584,1.58Zm5.056,14.537a.317.317,0,0,1-.316.316H6.636a.317.317,0,0,1-.316-.316v-.632a.317.317,0,0,1,.316-.316h5.688a.317.317,0,0,1,.316.316Zm0-3.792a.317.317,0,0,1-.316.316H6.636a.317.317,0,0,1-.316-.316v-.632a.317.317,0,0,1,.316-.316h5.688a.317.317,0,0,1,.316.316Zm0-3.792a.317.317,0,0,1-.316.316H6.636a.317.317,0,0,1-.316-.316V7.9a.317.317,0,0,1,.316-.316h5.688a.317.317,0,0,1,.316.316Z" transform="translate(-5521 -13605)" fill="#0c0c0c"/>
  </g>
</svg>
