<svg xmlns="http://www.w3.org/2000/svg" width="24" height="24" viewBox="0 0 24 24">
  <g id="Group_1640" data-name="Group 1640" transform="translate(-367 -33)">
    <rect id="Rectangle_379" data-name="Rectangle 379" width="24" height="24" transform="translate(367 33)" fill="none"/>
    <path id="Icon_material-notifications" data-name="Icon material-notifications" d="M12,22a2.006,2.006,0,0,0,2-2H10A2,2,0,0,0,12,22Zm6-6V11c0-3.07-1.64-5.64-4.5-6.32V4a1.5,1.5,0,0,0-3,0v.68C7.63,5.36,6,7.92,6,11v5L4,18v1H20V18Z" transform="translate(367 32.5)" fill="#001d65"/>
    <g id="Ellipse_41" data-name="Ellipse 41" transform="translate(382 34)" fill="#f88022" stroke="#fff" stroke-width="1">
      <circle cx="4" cy="4" r="4" stroke="none"/>
      <circle cx="4" cy="4" r="3.5" fill="none"/>
    </g>
  </g>
</svg>
