<svg id="Group_1686" data-name="Group 1686" xmlns="http://www.w3.org/2000/svg" xmlns:xlink="http://www.w3.org/1999/xlink" width="20" height="21" viewBox="0 0 20 21">
  <defs>
    <filter id="Ellipse_29" x="0" y="0" width="20" height="21" filterUnits="userSpaceOnUse">
      <feOffset dy="1" input="SourceAlpha"/>
      <feGaussianBlur result="blur"/>
      <feFlood flood-opacity="0.051"/>
      <feComposite operator="in" in2="blur"/>
      <feComposite in="SourceGraphic"/>
    </filter>
  </defs>
  <g transform="matrix(1, 0, 0, 1, 0, 0)" filter="url(#Ellipse_29)">
    <g id="Ellipse_29-2" data-name="Ellipse 29" fill="#fff" stroke="#f1f1f1" stroke-width="1">
      <circle cx="10" cy="10" r="10" stroke="none"/>
      <circle cx="10" cy="10" r="9.5" fill="none"/>
    </g>
  </g>
  <path id="Icon_awesome-user-circle" data-name="Icon awesome-user-circle" d="M8.631.375a8.631,8.631,0,1,0,8.631,8.631A8.63,8.63,0,0,0,8.631.375Zm0,3.341A3.063,3.063,0,1,1,5.569,6.779,3.063,3.063,0,0,1,8.631,3.716Zm0,11.973a6.669,6.669,0,0,1-5.1-2.374,3.88,3.88,0,0,1,3.428-2.081.852.852,0,0,1,.247.038,4.608,4.608,0,0,0,1.423.24,4.591,4.591,0,0,0,1.423-.24.852.852,0,0,1,.247-.038,3.88,3.88,0,0,1,3.428,2.081A6.669,6.669,0,0,1,8.631,15.689Z" transform="translate(1.369 0.994)" fill="#3ab8da"/>
</svg>
